<svg xmlns="http://www.w3.org/2000/svg" width="426" height="257" fill="none" xmlns:v="https://vecta.io/nano"><g fill="#188706"><path d="M153.222 257.004l6.84-16.644-14.364-36.328h11.4l8.436 24.548 9.044-24.548h11.324l-21.508 52.972h-11.172z"/><use href="#B"/><use href="#B" x="-21.153"/><path d="M89.051 197.876v-9.348h10.64v9.348h-10.64zm.152 43.624v-37.468h10.336V241.5H89.203zm-22.285-38.304c8.512 0 13.528 5.092 13.528 13.756V241.5h-10.26v-21.964c0-5.016-2.128-7.372-6.536-7.372-6.004 0-7.676 4.864-7.676 15.048V241.5H45.638v-52.972h10.336v19.38c2.432-3.192 6.156-4.712 10.944-4.712zM4.104 241.5v-52.972H22.04c12.084 0 18.24 5.092 18.24 15.428 0 10.412-6.308 15.884-18.24 15.884h-7.296v21.66H4.104zm10.64-31.464h6.232c5.776 0 8.588-1.444 8.588-5.928 0-4.408-2.584-5.776-8.588-5.776h-6.232v11.704zm223.766-79.84c8.588 0 13.528 5.168 13.528 13.756V168.5h-10.26v-21.28c0-2.736 0-8.056-6.46-8.056-7.752 0-7.752 7.676-7.752 13.072V168.5H217.23v-37.468h10.336v3.876c2.736-3.496 6.688-4.712 10.944-4.712z"/><use href="#C"/><use href="#C" x="-38.965"/><path d="M130.272 130.196c2.508 0 4.788.684 7.296 2.28l-4.94 9.196c-1.14-.76-2.888-1.292-4.712-1.292-4.788 0-7.448 3.116-7.448 9.956V168.5h-10.336v-37.468h10.412v5.928c1.672-4.256 5.624-6.764 9.728-6.764zm-51.457 9.272h22.344V168.5h-7.524l-1.216-5.32c-3.268 4.484-8.74 6.612-15.428 6.612-15.504 0-26.22-11.324-26.22-27.588 0-16.112 10.488-28.044 26.22-28.044 10.716 0 19.836 5.472 23.864 15.808l-9.88 3.876c-2.28-6.308-7.524-9.5-14.136-9.5-9.424 0-15.352 6.308-15.352 17.632 0 11.78 6.46 17.556 16.264 17.556 8.208 0 12.692-4.028 12.692-9.652v-.76H78.815v-9.652zm-30.935 25.46l-7.296 6.536-6.688-7.676c-4.408 3.648-9.804 5.624-15.96 5.624C7.98 169.412 0 164.776 0 155.884c0-7.904 5.928-12.54 12.084-16.264-2.28-2.204-6.08-6.46-6.08-12.084 0-7.98 7.752-12.692 15.048-12.692 7.676 0 14.288 5.396 14.288 12.692 0 6.004-3.952 10.184-8.816 13.68l6.916 7.6c.988-2.356 1.672-5.016 2.128-7.904l9.576 1.292c-.988 5.472-2.66 10.184-5.016 14.136l7.752 8.588zM15.96 127.46c0 2.508 2.356 5.776 3.876 7.524 3.496-2.204 6.004-4.484 6.004-7.448 0-2.432-1.52-4.636-4.712-4.636-2.736 0-5.168 1.672-5.168 4.56zm1.444 33.212c4.104 0 7.6-1.368 10.412-3.8l-9.196-10.488c-4.712 3.04-8.588 5.928-8.588 9.728 0 3.192 3.116 4.56 7.372 4.56zM176.983 57.196c8.588 0 13.528 5.168 13.528 13.756V95.5h-10.26V74.22c0-2.736 0-8.056-6.46-8.056-7.752 0-7.752 7.676-7.752 13.072V95.5h-10.336V58.032h10.336v3.876c2.736-3.496 6.688-4.712 10.944-4.712zm-46.388 0c10.26 0 16.568 5.624 16.568 14.592V95.5h-9.424l-.76-4.332c-2.66 3.8-6.84 5.168-10.64 5.168-8.132 0-13.984-5.244-13.984-12.616 0-4.408 1.976-7.6 5.396-9.348 2.432-1.216 5.472-1.748 9.272-1.748h9.88v-.836c0-3.42-2.508-5.624-6.764-5.624-3.344 0-6.536 1.444-9.576 4.864l-7.448-6.232c4.56-5.168 10.792-7.6 17.48-7.6zm-2.584 30.628c4.788 0 8.816-3.268 8.892-7.6h-8.436c-2.128 0-3.572.304-4.484.988-.912.608-1.368 1.52-1.368 2.66 0 2.28 1.9 3.952 5.396 3.952zm-18.749-11.172c0 1.14-.076 2.204-.228 3.572H83.878c.456 3.952 3.116 6.764 8.512 6.764 3.116 0 6.08-1.064 8.436-3.876l7.144 6.308c-4.028 4.484-9.196 6.916-15.656 6.916-13.376 0-18.696-9.576-18.696-19.38 0-9.576 5.168-19.76 18.088-19.76 11.704 0 17.556 8.512 17.556 19.456zm-25.46-4.256h15.656c-.152-4.104-3.572-6.612-7.828-6.612-5.244 0-7.372 3.572-7.828 6.612z"/><use href="#B" x="-74.665" y="-146"/><path d="M26.524 96.792C10.716 96.792.38 85.848.38 68.976.38 52.028 10.64 41.16 26.448 41.16c11.476 0 20.064 5.7 23.94 15.808l-9.88 3.876c-2.204-6.308-7.22-9.5-14.06-9.5-9.728 0-15.352 6.308-15.352 17.556s5.776 17.632 15.428 17.632c6.992 0 11.932-3.268 13.984-9.728l10.032 3.8c-3.724 10.412-12.464 16.188-24.016 16.188z"/></g><g fill-rule="evenodd" fill="#59b322"><path d="M287.024 37.5v202h-13v-202h13zM328.573 159v79.752h-13V159h13zm85.996 0v79.752h-13V159h13z"/><use href="#D"/><use href="#D" y="-20.447"/><use href="#D" y="-40.893"/><path d="M202.024 228.5h223v13h-223v-13zm54.844-172.543l31 31-9.193 9.192-31-31 9.193-9.192z"/><path d="M315.217 67.693l-32 32-9.192-9.192 32-32 9.192 9.192zM280.024 13c-27.393 0-49.5 21.993-49.5 49s22.107 49 49.5 49 49.5-21.993 49.5-49-22.107-49-49.5-49zm-62.5 49c0-34.296 28.037-62 62.5-62s62.5 27.704 62.5 62-28.037 62-62.5 62-62.5-27.704-62.5-62z"/><path d="M370.521 65c-7.149 0-13.055 5.365-13.896 12.284L355.93 83h-17.084c-3.006 8.285-7.736 15.744-13.751 21.954 2.372 2.496 5.721 4.046 9.426 4.046h58c7.18 0 13-5.82 13-13s-5.82-13-13-13h-7.408l-.695-5.716C383.577 70.365 377.671 65 370.521 65zm-25.462 5c3.708-10.488 13.704-18 25.462-18 11.848 0 21.907 7.626 25.546 18.24A26.01 26.01 0 0 1 418.521 96c0 14.359-11.64 26-26 26h-58c-10.6 0-19.705-6.343-23.752-15.414l-1.973-4.421 3.671-3.156c7.333-6.305 12.76-14.695 15.354-24.213l1.276-4.685 4.855-.105.569-.006h10.538zM238.024 193.5v46h-13v-46h13z"/><path d="M213.291 204.807l27 27-9.193 9.192-27-27 9.193-9.192z"/><path d="M259.216 213.692l-27 27-9.192-9.192 27-27 9.192 9.192z"/></g><defs ><path id="B" d="M139.138 242.336c-5.244 0-9.272-3.116-9.272-10.108v-43.7h10.26v42.636c0 1.748.912 2.204 2.432 2.204.76 0 1.672-.152 2.66-.38v8.132c-2.204.836-4.332 1.216-6.08 1.216z"/><path id="C" d="M210.793 149.652c0 1.14-.076 2.204-.228 3.572h-25.156c.456 3.952 3.116 6.764 8.512 6.764 3.116 0 6.08-1.064 8.436-3.876l7.144 6.308c-4.028 4.484-9.196 6.916-15.656 6.916-13.376 0-18.696-9.576-18.696-19.38 0-9.576 5.168-19.76 18.088-19.76 11.704 0 17.556 8.512 17.556 19.456zm-25.46-4.256h15.656c-.152-4.104-3.572-6.612-7.828-6.612-5.244 0-7.372 3.572-7.828 6.612z"/><path id="D" d="M301.024 198.637h123.883v13H301.024v-13z"/></defs></svg>