<?xml version="1.0" standalone="no"?>
<!DOCTYPE svg PUBLIC "-//W3C//DTD SVG 20010904//EN"
 "http://www.w3.org/TR/2001/REC-SVG-20010904/DTD/svg10.dtd">
<svg version="1.0" xmlns="http://www.w3.org/2000/svg"
 width="700.000000pt" height="700.000000pt" viewBox="0 0 700.000000 700.000000"
 preserveAspectRatio="xMidYMid meet">
<metadata>
Created by potrace 1.14, written by Peter Selinger 2001-2017
</metadata>
<g transform="translate(0.000000,700.000000) scale(0.100000,-0.100000)"
fill="#000000" stroke="none">
<path d="M2345 6993 c-324 -37 -587 -133 -853 -311 -200 -133 -392 -335 -522
-547 -109 -176 -205 -433 -235 -625 -4 -25 -9 -54 -12 -65 -10 -42 -12 -383
-2 -445 5 -36 11 -79 14 -97 15 -115 81 -323 145 -458 239 -500 684 -856 1230
-984 84 -20 102 -23 190 -35 l45 -6 -2 -1498 c-1 -823 -2 -1505 -2 -1514 -1
-17 -28 -18 -428 -18 l-428 0 215 215 215 215 -133 132 -132 133 -174 -174
-175 -175 0 328 c0 181 -2 331 -5 334 -10 10 -358 7 -365 -3 -4 -5 -7 -155 -6
-333 l1 -322 -44 42 c-24 24 -98 98 -165 166 -67 67 -125 122 -129 122 -4 0
-65 -58 -137 -130 l-130 -130 210 -210 210 -210 -240 0 -241 0 0 -188 0 -187
3225 0 3225 -1 0 188 0 188 -150 0 -150 0 0 244 0 244 118 0 c64 0 131 1 149
1 l32 1 0 184 c0 133 -4 185 -12 188 -7 2 -74 3 -149 3 l-138 -1 0 108 0 108
149 0 150 0 1 188 0 188 -150 0 -150 -1 0 108 0 107 150 0 150 0 -3 187 -2
188 -1790 0 -1790 0 -1 -187 0 -188 211 0 210 0 -1 -102 c-1 -57 -2 -105 -3
-108 0 -3 -94 -5 -208 -5 l-208 0 0 -187 -1 -188 210 -2 211 -3 0 -105 0 -105
-200 -1 c-110 -1 -205 -2 -210 -3 -7 -1 -11 -66 -11 -186 l0 -185 56 -1 c30 0
124 0 208 0 111 0 152 -3 153 -12 4 -36 5 -454 1 -464 -3 -10 -95 -13 -413
-13 l-409 0 0 58 c-3 1109 1 2967 7 2973 4 4 33 10 63 14 197 24 493 130 660
236 30 19 61 38 67 43 8 4 31 -10 60 -37 88 -80 194 -142 295 -171 30 -9 66
-20 79 -24 13 -3 443 -8 954 -9 779 -2 942 0 1005 12 291 56 516 270 590 561
64 250 -11 517 -199 705 -111 111 -244 182 -403 214 -19 3 -30 14 -37 38 -40
119 -194 304 -314 376 -309 184 -684 145 -950 -98 -59 -53 -139 -167 -171
-241 -28 -65 -29 -66 -65 -64 -20 1 -40 2 -44 3 -4 0 -5 28 -1 62 12 116 7
323 -12 439 -12 74 -57 255 -65 265 -5 5 -9 17 -9 27 0 27 -93 237 -141 320
-181 311 -451 564 -764 718 -260 127 -483 180 -775 184 -96 1 -188 1 -205 -1z
m364 -383 c224 -29 437 -112 631 -244 105 -71 294 -262 362 -366 168 -255 243
-502 242 -795 0 -181 -21 -304 -80 -470 -144 -405 -477 -732 -884 -869 -96
-32 -249 -66 -255 -57 -4 7 -7 207 -5 362 l0 55 405 405 c223 222 404 407 402
412 -4 12 -250 257 -258 257 -5 0 -130 -122 -279 -271 l-270 -270 0 53 c0 29
-1 289 -3 578 l-2 525 -185 0 -185 0 0 -512 c0 -282 -2 -513 -4 -513 -1 0
-114 110 -249 245 l-246 246 -133 -133 -133 -133 381 -381 382 -382 0 -274 c0
-308 10 -278 -83 -264 -122 18 -248 60 -381 126 -404 200 -683 564 -770 1005
-70 356 9 735 219 1050 83 124 244 287 367 371 139 95 371 199 489 220 17 3
49 9 71 14 22 5 74 12 115 16 41 3 76 7 77 8 6 5 193 -5 262 -14z m2561 -1515
c105 -37 198 -127 239 -233 12 -29 26 -97 33 -150 6 -53 14 -100 17 -104 3 -4
64 -8 135 -9 70 0 144 -6 164 -11 237 -65 355 -318 247 -532 -49 -99 -138
-169 -253 -201 -12 -4 -424 -7 -915 -7 -674 0 -903 3 -937 12 -57 15 -95 35
-143 73 l-38 30 38 41 c128 135 257 335 329 511 l33 80 208 2 c114 1 225 3
245 3 40 0 41 1 53 105 14 119 27 160 68 225 57 87 153 156 252 180 53 13 169
5 225 -15z m758 -3142 l-3 -107 -1035 -1 c-569 0 -1043 1 -1052 3 -16 4 -18
17 -17 108 l0 104 1055 0 1055 0 -3 -107z m4 -573 c2 -49 1 -98 -2 -108 -5
-16 -57 -17 -1055 -17 l-1050 0 -3 108 -3 107 1055 0 1055 0 3 -90z m-2 -571
c1 -38 1 -125 1 -194 0 -69 0 -147 -1 -175 l0 -50 -1055 0 -1055 0 1 244 1
244 1054 0 1054 0 0 -69z"/>
</g>
</svg>
